<?xml version="1.0" encoding="utf-8"?>
<!-- Generator: Adobe Illustrator 15.0.2, SVG Export Plug-In . SVG Version: 6.00 Build 0)  -->
<!DOCTYPE svg PUBLIC "-//W3C//DTD SVG 1.0//EN" "http://www.w3.org/TR/2001/REC-SVG-20010904/DTD/svg10.dtd">
<svg version="1.0" id="Ebene_1" xmlns="http://www.w3.org/2000/svg" xmlns:xlink="http://www.w3.org/1999/xlink" x="0px" y="0px"
	 width="202px" height="68px" viewBox="0 0 202 68" enable-background="new 0 0 202 68" xml:space="preserve">
<g>
	<path fill-rule="evenodd" clip-rule="evenodd" d="M54.4,19.08c0.613-0.346,1.379-1.686,2.399-0.84
		c-0.119-0.099-6.136,6.77-6.636,7.472c-2.658,3.73-4.913,8.917-8.963,11.368c0.016-1.193,3.37-6.502,4.858-8.68
		c1.538-2.249,2.926-4.596,4.473-6.838C51.168,20.637,53.434,16.437,54.4,19.08z"/>
	<path fill-rule="evenodd" clip-rule="evenodd" d="M76.639,27.714c0.208,0.508,0.344,0.984,0.384,1.317
		c0.269,2.215-1.089,4.152-2.2,5.924c-0.472,0.753-4.758,7.195-4.463,7.644c1.118,1.699,2.336-0.994,3.599-2.158
		c0.789-0.728,3.801-2.37,3.836-0.182c0.019,1.142-2.753,2.561-3.298,3.604c0.128,0.239,0.325,0.327,0.602,0.379
		c0.94,0.174,1.659-0.848,2.488-1.087c1.085-0.313,1.971-0.438,3.06-0.841c1.467-0.543,3.241-1.875,4.713-0.795
		c1.831,1.344,9.874-14.377,12.599-13.44c-0.003-0.001-2.075,3.441-2.323,3.873c-0.553,0.966-1.23,1.74-1.741,2.633
		c-0.884,1.543-1.372,3.279-2.061,4.911c-0.114,0.271-1.626,3.883-0.594,3.583c1.054-0.307,1.173-1.547,2.4-1.68
		c0.884,0.523,0.479,1.498,0.12,2.279c-0.05,0.411,0.36,0.361,0.48,0.601c0.702-0.019,0.725-0.716,1.08-1.08
		c1.62-0.18,1.158,1.722,2.16,2.16c0.382-0.021,0.883-0.281,1.2,0c0.373,0.387,0.141,0.84,0,1.319
		c-1.26,0.812-2.808,0.362-3.36-0.72c-1.012-0.013-1.843,0.157-2.76,0.24c-0.562-0.279-0.809-0.871-1.321-1.2
		c-2.165,0.328-2.771-0.404-2.246-2.332c0.23-0.847,0.86-1.553,1.197-2.342c0.081-0.188,0.538-2.698,0.33-2.406
		c-2.377,3.345-3.729,5.529-6.373,7.647c-0.78,0.623-2.316-1.56-3.031-1.687c-2.61-0.463-4.782,2.219-7.384,2.125
		c-1.145-0.041-1.393-0.821-2.413-1.006c-1.084-0.197-1.91,0.764-3.12,0c-0.812-1.254,0.169-1.607,0.6-2.52
		c0.574-1.216,1.18-2.398,1.865-3.567c0.298-0.509,0.764-1.11,1.094-1.602c0.741-1.104,1.514-2.324,2.189-3.55
		c1.322-2.398,2.925-6.287-0.828-6.882c-0.387-1.012,0.601-1.802,1.083-1.8C75.221,25.089,76.139,26.493,76.639,27.714z"/>
	<path fill-rule="evenodd" clip-rule="evenodd" d="M40.002,34.224c-0.452,1.005-4.568,6.67-3.767,6.967
		c0.929-0.631,1.814-1.309,3.351-2.845c0.943-0.397,1.412-0.803,1.374,0.174c-2.234,4.187-5.397,3.601-5.397,3.601
		s-3.932,4.078-4.975,5.312c-0.519,0.614-1.667,2.271-2.666,2.025c-0.663-0.164-1.488-0.182-1.322-0.473
		c0.378-0.665,1.841-1.299,3.248-2.598c2.195-2.026,4.114-4.223,4.114-4.223s-1.072-3.641-1.044-4.468
		c0.02-0.584,1.347-6.898,2.96-5.258c-0.616,1.39-1.935,5.298-1.049,7.453c0.311,0.757,3.512-5.38,3.682-5.751
		c0.579-1.259,1.123-2.827,1.573-4.089c0.465-1.304,0.749-2.725,0.165-2.671c-1.847,0.169-1.237-0.984-0.848-1.1
		c1.467-0.437,2.902-1.183,3.12,0.48C42.642,27.69,40.477,33.169,40.002,34.224z"/>
	<path fill-rule="evenodd" clip-rule="evenodd" d="M70.524,30.46c-0.057,1.28-1.122,2.315-2.17,3.172
		c-1.368,1.118-3.092,1.731-4.861,1.634c-0.271-0.015-4.513-1.51-4.052-1.787c-1.975,1.183-5.99,6.844-5.99,6.844
		s1.407,0.108,2.187,0.062c2.676-0.157,6.432-1.877,8.472,0.679c3.304,4.141-10.158,7.318-12.647,3.782
		c-2.538-3.604,3.914-10.723,6.226-13.027c1.837-1.83,3.844-3.669,6.209-4.783c1.047-0.493,2.111-0.984,3.281-0.671
		c1.448,0.39,3.144,2.134,3.331,3.695C70.525,30.197,70.529,30.33,70.524,30.46z M67.72,29.04c-3.085-0.418-5.062,1.239-6.84,2.52
		c-0.071,0.511,0.086,0.793,0.12,1.2C64.26,34.169,70.242,32.298,67.72,29.04z M58.72,42.12c-1.759,0.037-3.983,0.047-5.28-0.12
		c-0.729,0.179-0.8,1.721-0.239,2.16c1.376,1.078,4.501,0.258,5.983-0.118C62.485,43.204,61.926,42.053,58.72,42.12z"/>
	<path fill-rule="evenodd" clip-rule="evenodd" d="M116.521,27.687c0.686,0.798,0.838,2.284,0.772,3.231
		c-0.048,0.695-3.308,7.083-3.134,7.122c0.715,0.155,1.16-0.84,1.32-0.84c3.208-3.551,6.495-7.025,10.079-10.2
		c0.608,0.353,1.041,0.879,1.32,1.56c0.486,1.194-2.341,4.364-2.951,5.215c-0.295,0.412-4.283,5.705-3.769,5.825
		c1.544,0.359,2.512-3.095,3.987-2.596c1.785,0.607-1.452,5.575-2.066,6.555c-0.416,0.663,3.202-0.661,3.483-0.806
		c3.175-1.634,5.069-5.11,9.115-3.393c0.567,2.028-1.43,2.474-2.76,3.004c-0.016,2.024,5.861-1.581,6.633-1.864
		c0.667-0.245,7.397-2.626,7.647-1.38c0.181,0.9-0.523,0.916-0.96,1.2c-0.843,0.757-1.646,1.553-2.399,2.398
		c-0.386,0.433,2.226,0.323,2.411,0.279c1.538-0.369,2.553-1.35,3.656-2.368c0.087-0.079,3.217-2.259,2.93-1.383
		c-0.501,1.529-3.745,2.773-2.783,4.453c1.585-0.454,3.599-1.091,4.897-2.127c0.617-0.492,1.616-2.665,2.567-2.453
		c0.713,0.159,0.463,1.284,0.24,1.68c-0.406,0.725-2.458,1.787-2.76,2.76c-0.322,1.036,1.513-0.172,1.733-0.298
		c1.049-0.596,2.266-1.649,2.347-2.941c0.495-0.32,1.402-0.529,1.8,0c0.397,1.424-1.396,1.244-1.08,2.279
		c0.487,1.597,2.28-0.519,3.48-0.359c0.743-0.656,1.382-1.418,2.04-2.16c1.208-0.25,2.298-1.563,3.84-0.72
		c0.162,0.204,0.432,0.919,0.12,1.199c-0.739,0.421-1.363,0.958-1.92,1.561c-0.896,0.971-3.067,0.695-2.852,2.82
		c0.828-0.01,1.535-0.453,2.244-0.885c4.049-2.461,6.423-4.235,8.334-8.782c0.586-1.394,1.775-3.028,2.875-4.061
		c0.184-0.173,3.032-2.268,2.958-0.732c-0.033,0.687-0.444,1.616-1.08,2.76c-1.555,2.325-2.996,4.764-5.16,6.479
		c-0.524,0.445-1.304,2.359-1.387,3.02c-0.051,0.383-0.286,0.643-0.288,1.05c-0.004,0.556,4.218-2.282,4.503-2.538
		c1.408-1.263,2.622-2.776,3.717-4.314c0.39-0.548,3.157-5.968,4.256-4.896c0.286,0.279,0.636,0.605,0.36,1.317
		c-0.718,1.854-1.181,2.88-2.009,4.694c-0.376,0.824-1.997,2.803-1.887,3.737c0.165,1.401,1.296,0.617,1.645,1.467
		c0.136,0.331-3.997,2.811-3.439-0.332c0.173-0.979,3.337-5.004,2.203-5.885c-0.018-0.014-3.396,4.36-3.662,4.653
		c-0.834,0.918-1.563,1.637-2.675,2.17c-0.847,0.406-3.312,2.089-4.097,1.019c-0.302-0.721-0.004-1.613,0.12-2.28
		c-0.013-0.308-0.447-0.192-0.6-0.359c-0.453,0.481-8.268,6.264-8.641,3.479c-0.081-0.605,0.243-0.876,0-1.319
		c-0.397-0.702-1.457-0.062-2.64-0.12c-0.578-0.029-1.223-0.368-1.561-0.36c-1.526,0.035-2.243,1.557-3.239,2.16
		c-0.788,0.108-1.222-0.139-1.561-0.48c0.188-0.576,0.146-1.244-0.24-1.56c-1.802-0.144-2.994,1.908-4.68,0.718
		c-0.186-3.248-2.865,0.186-3.996,0.418c-1.206,0.247-1.84-0.867-2.893-0.944c-1.237-0.09-4.263,2.319-5.229,0.532
		c-0.262-0.484,0.578-1.009-0.149-1.471c-0.279-0.177-1.393,0.563-1.658,0.677c-0.877,0.373-1.955,1.465-2.974,1.318
		c-0.856-0.124-1.004-1.198-1.859-1.221c-0.825-0.021-1.195,1.05-1.961,1.104c-0.835,0.057-1.094-0.854-1.857-0.885
		c-0.556-0.022-1.065,0.686-1.601,0.837c-0.651,0.186-1.414-0.067-2.101,0.116c-1.401,0.377-0.263-3.81-0.245-4.42
		c-0.884,0.142-4.669,3.853-5.471,2.854c-0.574-0.716,0.178-1.281,0.473-1.865c0.712-1.408,2.02-2.657,3.012-3.87
		c0.802-0.98,5.594-5.816,4.144-7.286c-1.448,1.087-2.93,2.268-4.035,3.709c-1.339,1.745-2.999,3.683-4.609,5.168
		c-1.255,1.157-3.078,1.798-4.069,3.311c-0.329,0.504-0.084,0.818-0.479,1.08c-0.454,0.3-1.712,0.482-2.28-0.12
		c2.702-3.353,7.109-8.277,7.713-12.727c0.171-1.263-0.088-2.165-1.523-2.372c-1.698-0.245-2.055,1.507-3.288,1.889
		c-2.315,0.716,0.172-2.252,1.288-2.813c1.189-0.598,2.924-1.271,4.09-0.292C116.392,27.546,116.459,27.614,116.521,27.687z
		 M137.8,42.72c1.159,1.32,2.565-0.411,3.24-1.08C140.184,40.217,138.125,41.731,137.8,42.72z"/>
	<path fill-rule="evenodd" clip-rule="evenodd" d="M38.726,27.766c0.117,0.871-2.288,3.458-2.923,3.248
		C35.315,30.255,38.137,27.082,38.726,27.766z"/>
	<path fill-rule="evenodd" clip-rule="evenodd" d="M41.92,44.28c0.429,1.073-0.008,2.81-1.56,2.64
		C39.372,45.857,40.579,43.763,41.92,44.28z"/>
	<path fill-rule="evenodd" clip-rule="evenodd" d="M26.32,48.602c-0.225,2.66-4.403,0.007-3.36-1.082
		C24.228,46.196,25.261,48.232,26.32,48.602z"/>
	<path fill-rule="evenodd" clip-rule="evenodd" d="M135.28,18.84c1.58,0.732-0.337,2.374-0.953,2.971
		c-0.75,0.728-3.621,4.391-4.957,3.384c-1.556-1.172,1.858-2.456,2.476-2.84C133.143,21.549,134.746,20.347,135.28,18.84z"/>
</g>
</svg>
